<svg xmlns="http://www.w3.org/2000/svg" width="880" height="198" viewBox="0 0 880 198" role="img" aria-label="Contribution activity: 50 contributions in the last year"><rect x="0.5" y="0.5" width="879" height="197" fill="#0d1117" stroke="#30363d" stroke-width="1"/><text x="24" y="34" font-family="-apple-system, BlinkMacSystemFont, 'Segoe UI', Helvetica, Arial, sans-serif" font-size="10" letter-spacing="3" fill="#8b949e">CONTRIBUTION ACTIVITY</text><text x="856" y="34" text-anchor="end" font-family="-apple-system, BlinkMacSystemFont, 'Segoe UI', Helvetica, Arial, sans-serif" font-size="10" letter-spacing="1.5" fill="#8b949e">50 contributions &#183; last 12 months</text><text x="97" y="52" font-family="-apple-system, BlinkMacSystemFont, 'Segoe UI', Helvetica, Arial, sans-serif" font-size="8.5" fill="#6e7681">Oct</text><text x="149" y="52" font-family="-apple-system, BlinkMacSystemFont, 'Segoe UI', Helvetica, Arial, sans-serif" font-size="8.5" fill="#6e7681">Nov</text><text x="214" y="52" font-family="-apple-system, BlinkMacSystemFont, 'Segoe UI', Helvetica, Arial, sans-serif" font-size="8.5" fill="#6e7681">Dec</text><text x="266" y="52" font-family="-apple-system, BlinkMacSystemFont, 'Segoe UI', Helvetica, Arial, sans-serif" font-size="8.5" fill="#6e7681">Jan</text><text x="318" y="52" font-family="-apple-system, BlinkMacSystemFont, 'Segoe UI', Helvetica, Arial, sans-serif" font-size="8.5" fill="#6e7681">Feb</text><text x="370" y="52" font-family="-apple-system, BlinkMacSystemFont, 'Segoe UI', Helvetica, Arial, sans-serif" font-size="8.5" fill="#6e7681">Mar</text><text x="435" y="52" font-family="-apple-system, BlinkMacSystemFont, 'Segoe UI', Helvetica, Arial, sans-serif" font-size="8.5" fill="#6e7681">Apr</text><text x="487" y="52" font-family="-apple-system, BlinkMacSystemFont, 'Segoe UI', Helvetica, Arial, sans-serif" font-size="8.5" fill="#6e7681">May</text><text x="552" y="52" font-family="-apple-system, BlinkMacSystemFont, 'Segoe UI', Helvetica, Arial, sans-serif" font-size="8.5" fill="#6e7681">Jun</text><text x="604" y="52" font-family="-apple-system, BlinkMacSystemFont, 'Segoe UI', Helvetica, Arial, sans-serif" font-size="8.5" fill="#6e7681">Jul</text><text x="656" y="52" font-family="-apple-system, BlinkMacSystemFont, 'Segoe UI', Helvetica, Arial, sans-serif" font-size="8.5" fill="#6e7681">Aug</text><text x="721" y="52" font-family="-apple-system, BlinkMacSystemFont, 'Segoe UI', Helvetica, Arial, sans-serif" font-size="8.5" fill="#6e7681">Sep</text><text x="773" y="52" font-family="-apple-system, BlinkMacSystemFont, 'Segoe UI', Helvetica, Arial, sans-serif" font-size="8.5" fill="#6e7681">Oct</text><rect x="97" y="58" width="10" height="10" rx="2" fill="#161b22"/><rect x="97" y="71" width="10" height="10" rx="2" fill="#161b22"/><rect x="97" y="84" width="10" height="10" rx="2" fill="#161b22"/><rect x="97" y="97" width="10" height="10" rx="2" fill="#161b22"/><rect x="97" y="110" width="10" height="10" rx="2" fill="#161b22"/><rect x="97" y="123" width="10" height="10" rx="2" fill="#161b22"/><rect x="97" y="136" width="10" height="10" rx="2" fill="#161b22"/><rect x="110" y="58" width="10" height="10" rx="2" fill="#161b22"/><rect x="110" y="71" width="10" height="10" rx="2" fill="#161b22"/><rect x="110" y="84" width="10" height="10" rx="2" fill="#161b22"/><rect x="110" y="97" width="10" height="10" rx="2" fill="#161b22"/><rect x="110" y="110" width="10" height="10" rx="2" fill="#161b22"/><rect x="110" y="123" width="10" height="10" rx="2" fill="#161b22"/><rect x="110" y="136" width="10" height="10" rx="2" fill="#161b22"/><rect x="123" y="58" width="10" height="10" rx="2" fill="#161b22"/><rect x="123" y="71" width="10" height="10" rx="2" fill="#161b22"/><rect x="123" y="84" width="10" height="10" rx="2" fill="#161b22"/><rect x="123" y="97" width="10" height="10" rx="2" fill="#161b22"/><rect x="123" y="110" width="10" height="10" rx="2" fill="#161b22"/><rect x="123" y="123" width="10" height="10" rx="2" fill="#161b22"/><rect x="123" y="136" width="10" height="10" rx="2" fill="#161b22"/><rect x="136" y="58" width="10" height="10" rx="2" fill="#161b22"/><rect x="136" y="71" width="10" height="10" rx="2" fill="#161b22"/><rect x="136" y="84" width="10" height="10" rx="2" fill="#161b22"/><rect x="136" y="97" width="10" height="10" rx="2" fill="#161b22"/><rect x="136" y="110" width="10" height="10" rx="2" fill="#161b22"/><rect x="136" y="123" width="10" height="10" rx="2" fill="#161b22"/><rect x="136" y="136" width="10" height="10" rx="2" fill="#161b22"/><rect x="149" y="58" width="10" height="10" rx="2" fill="#161b22"/><rect x="149" y="71" width="10" height="10" rx="2" fill="#161b22"/><rect x="149" y="84" width="10" height="10" rx="2" fill="#161b22"/><rect x="149" y="97" width="10" height="10" rx="2" fill="#161b22"/><rect x="149" y="110" width="10" height="10" rx="2" fill="#161b22"/><rect x="149" y="123" width="10" height="10" rx="2" fill="#161b22"/><rect x="149" y="136" width="10" height="10" rx="2" fill="#161b22"/><rect x="162" y="58" width="10" height="10" rx="2" fill="#161b22"/><rect x="162" y="71" width="10" height="10" rx="2" fill="#161b22"/><rect x="162" y="84" width="10" height="10" rx="2" fill="#161b22"/><rect x="162" y="97" width="10" height="10" rx="2" fill="#161b22"/><rect x="162" y="110" width="10" height="10" rx="2" fill="#161b22"/><rect x="162" y="123" width="10" height="10" rx="2" fill="#161b22"/><rect x="162" y="136" width="10" height="10" rx="2" fill="#161b22"/><rect x="175" y="58" width="10" height="10" rx="2" fill="#161b22"/><rect x="175" y="71" width="10" height="10" rx="2" fill="#161b22"/><rect x="175" y="84" width="10" height="10" rx="2" fill="#161b22"/><rect x="175" y="97" width="10" height="10" rx="2" fill="#161b22"/><rect x="175" y="110" width="10" height="10" rx="2" fill="#161b22"/><rect x="175" y="123" width="10" height="10" rx="2" fill="#161b22"/><rect x="175" y="136" width="10" height="10" rx="2" fill="#161b22"/><rect x="188" y="58" width="10" height="10" rx="2" fill="#161b22"/><rect x="188" y="71" width="10" height="10" rx="2" fill="#161b22"/><rect x="188" y="84" width="10" height="10" rx="2" fill="#161b22"/><rect x="188" y="97" width="10" height="10" rx="2" fill="#161b22"/><rect x="188" y="110" width="10" height="10" rx="2" fill="#161b22"/><rect x="188" y="123" width="10" height="10" rx="2" fill="#161b22"/><rect x="188" y="136" width="10" height="10" rx="2" fill="#161b22"/><rect x="201" y="58" width="10" height="10" rx="2" fill="#161b22"/><rect x="201" y="71" width="10" height="10" rx="2" fill="#161b22"/><rect x="201" y="84" width="10" height="10" rx="2" fill="#161b22"/><rect x="201" y="97" width="10" height="10" rx="2" fill="#161b22"/><rect x="201" y="110" width="10" height="10" rx="2" fill="#161b22"/><rect x="201" y="123" width="10" height="10" rx="2" fill="#161b22"/><rect x="201" y="136" width="10" height="10" rx="2" fill="#161b22"/><rect x="214" y="58" width="10" height="10" rx="2" fill="#161b22"/><rect x="214" y="71" width="10" height="10" rx="2" fill="#161b22"/><rect x="214" y="84" width="10" height="10" rx="2" fill="#161b22"/><rect x="214" y="97" width="10" height="10" rx="2" fill="#161b22"/><rect x="214" y="110" width="10" height="10" rx="2" fill="#161b22"/><rect x="214" y="123" width="10" height="10" rx="2" fill="#161b22"/><rect x="214" y="136" width="10" height="10" rx="2" fill="#161b22"/><rect x="227" y="58" width="10" height="10" rx="2" fill="#161b22"/><rect x="227" y="71" width="10" height="10" rx="2" fill="#161b22"/><rect x="227" y="84" width="10" height="10" rx="2" fill="#161b22"/><rect x="227" y="97" width="10" height="10" rx="2" fill="#161b22"/><rect x="227" y="110" width="10" height="10" rx="2" fill="#161b22"/><rect x="227" y="123" width="10" height="10" rx="2" fill="#161b22"/><rect x="227" y="136" width="10" height="10" rx="2" fill="#161b22"/><rect x="240" y="58" width="10" height="10" rx="2" fill="#161b22"/><rect x="240" y="71" width="10" height="10" rx="2" fill="#161b22"/><rect x="240" y="84" width="10" height="10" rx="2" fill="#161b22"/><rect x="240" y="97" width="10" height="10" rx="2" fill="#161b22"/><rect x="240" y="110" width="10" height="10" rx="2" fill="#161b22"/><rect x="240" y="123" width="10" height="10" rx="2" fill="#161b22"/><rect x="240" y="136" width="10" height="10" rx="2" fill="#161b22"/><rect x="253" y="58" width="10" height="10" rx="2" fill="#161b22"/><rect x="253" y="71" width="10" height="10" rx="2" fill="#161b22"/><rect x="253" y="84" width="10" height="10" rx="2" fill="#161b22"/><rect x="253" y="97" width="10" height="10" rx="2" fill="#161b22"/><rect x="253" y="110" width="10" height="10" rx="2" fill="#161b22"/><rect x="253" y="123" width="10" height="10" rx="2" fill="#161b22"/><rect x="253" y="136" width="10" height="10" rx="2" fill="#161b22"/><rect x="266" y="58" width="10" height="10" rx="2" fill="#161b22"/><rect x="266" y="71" width="10" height="10" rx="2" fill="#161b22"/><rect x="266" y="84" width="10" height="10" rx="2" fill="#161b22"/><rect x="266" y="97" width="10" height="10" rx="2" fill="#161b22"/><rect x="266" y="110" width="10" height="10" rx="2" fill="#161b22"/><rect x="266" y="123" width="10" height="10" rx="2" fill="#161b22"/><rect x="266" y="136" width="10" height="10" rx="2" fill="#161b22"/><rect x="279" y="58" width="10" height="10" rx="2" fill="#161b22"/><rect x="279" y="71" width="10" height="10" rx="2" fill="#161b22"/><rect x="279" y="84" width="10" height="10" rx="2" fill="#161b22"/><rect x="279" y="97" width="10" height="10" rx="2" fill="#161b22"/><rect x="279" y="110" width="10" height="10" rx="2" fill="#161b22"/><rect x="279" y="123" width="10" height="10" rx="2" fill="#161b22"/><rect x="279" y="136" width="10" height="10" rx="2" fill="#161b22"/><rect x="292" y="58" width="10" height="10" rx="2" fill="#161b22"/><rect x="292" y="71" width="10" height="10" rx="2" fill="#161b22"/><rect x="292" y="84" width="10" height="10" rx="2" fill="#161b22"/><rect x="292" y="97" width="10" height="10" rx="2" fill="#161b22"/><rect x="292" y="110" width="10" height="10" rx="2" fill="#161b22"/><rect x="292" y="123" width="10" height="10" rx="2" fill="#161b22"/><rect x="292" y="136" width="10" height="10" rx="2" fill="#161b22"/><rect x="305" y="58" width="10" height="10" rx="2" fill="#161b22"/><rect x="305" y="71" width="10" height="10" rx="2" fill="#161b22"/><rect x="305" y="84" width="10" height="10" rx="2" fill="#161b22"/><rect x="305" y="97" width="10" height="10" rx="2" fill="#161b22"/><rect x="305" y="110" width="10" height="10" rx="2" fill="#161b22"/><rect x="305" y="123" width="10" height="10" rx="2" fill="#161b22"/><rect x="305" y="136" width="10" height="10" rx="2" fill="#161b22"/><rect x="318" y="58" width="10" height="10" rx="2" fill="#161b22"/><rect x="318" y="71" width="10" height="10" rx="2" fill="#161b22"/><rect x="318" y="84" width="10" height="10" rx="2" fill="#161b22"/><rect x="318" y="97" width="10" height="10" rx="2" fill="#161b22"/><rect x="318" y="110" width="10" height="10" rx="2" fill="#161b22"/><rect x="318" y="123" width="10" height="10" rx="2" fill="#161b22"/><rect x="318" y="136" width="10" height="10" rx="2" fill="#161b22"/><rect x="331" y="58" width="10" height="10" rx="2" fill="#161b22"/><rect x="331" y="71" width="10" height="10" rx="2" fill="#161b22"/><rect x="331" y="84" width="10" height="10" rx="2" fill="#161b22"/><rect x="331" y="97" width="10" height="10" rx="2" fill="#161b22"/><rect x="331" y="110" width="10" height="10" rx="2" fill="#161b22"/><rect x="331" y="123" width="10" height="10" rx="2" fill="#161b22"/><rect x="331" y="136" width="10" height="10" rx="2" fill="#161b22"/><rect x="344" y="58" width="10" height="10" rx="2" fill="#161b22"/><rect x="344" y="71" width="10" height="10" rx="2" fill="#161b22"/><rect x="344" y="84" width="10" height="10" rx="2" fill="#161b22"/><rect x="344" y="97" width="10" height="10" rx="2" fill="#161b22"/><rect x="344" y="110" width="10" height="10" rx="2" fill="#161b22"/><rect x="344" y="123" width="10" height="10" rx="2" fill="#161b22"/><rect x="344" y="136" width="10" height="10" rx="2" fill="#161b22"/><rect x="357" y="58" width="10" height="10" rx="2" fill="#161b22"/><rect x="357" y="71" width="10" height="10" rx="2" fill="#161b22"/><rect x="357" y="84" width="10" height="10" rx="2" fill="#161b22"/><rect x="357" y="97" width="10" height="10" rx="2" fill="#161b22"/><rect x="357" y="110" width="10" height="10" rx="2" fill="#161b22"/><rect x="357" y="123" width="10" height="10" rx="2" fill="#161b22"/><rect x="357" y="136" width="10" height="10" rx="2" fill="#161b22"/><rect x="370" y="58" width="10" height="10" rx="2" fill="#161b22"/><rect x="370" y="71" width="10" height="10" rx="2" fill="#161b22"/><rect x="370" y="84" width="10" height="10" rx="2" fill="#161b22"/><rect x="370" y="97" width="10" height="10" rx="2" fill="#161b22"/><rect x="370" y="110" width="10" height="10" rx="2" fill="#161b22"/><rect x="370" y="123" width="10" height="10" rx="2" fill="#161b22"/><rect x="370" y="136" width="10" height="10" rx="2" fill="#161b22"/><rect x="383" y="58" width="10" height="10" rx="2" fill="#161b22"/><rect x="383" y="71" width="10" height="10" rx="2" fill="#161b22"/><rect x="383" y="84" width="10" height="10" rx="2" fill="#161b22"/><rect x="383" y="97" width="10" height="10" rx="2" fill="#161b22"/><rect x="383" y="110" width="10" height="10" rx="2" fill="#161b22"/><rect x="383" y="123" width="10" height="10" rx="2" fill="#161b22"/><rect x="383" y="136" width="10" height="10" rx="2" fill="#161b22"/><rect x="396" y="58" width="10" height="10" rx="2" fill="#161b22"/><rect x="396" y="71" width="10" height="10" rx="2" fill="#161b22"/><rect x="396" y="84" width="10" height="10" rx="2" fill="#161b22"/><rect x="396" y="97" width="10" height="10" rx="2" fill="#161b22"/><rect x="396" y="110" width="10" height="10" rx="2" fill="#161b22"/><rect x="396" y="123" width="10" height="10" rx="2" fill="#161b22"/><rect x="396" y="136" width="10" height="10" rx="2" fill="#161b22"/><rect x="409" y="58" width="10" height="10" rx="2" fill="#161b22"/><rect x="409" y="71" width="10" height="10" rx="2" fill="#161b22"/><rect x="409" y="84" width="10" height="10" rx="2" fill="#161b22"/><rect x="409" y="97" width="10" height="10" rx="2" fill="#161b22"/><rect x="409" y="110" width="10" height="10" rx="2" fill="#161b22"/><rect x="409" y="123" width="10" height="10" rx="2" fill="#161b22"/><rect x="409" y="136" width="10" height="10" rx="2" fill="#161b22"/><rect x="422" y="58" width="10" height="10" rx="2" fill="#161b22"/><rect x="422" y="71" width="10" height="10" rx="2" fill="#161b22"/><rect x="422" y="84" width="10" height="10" rx="2" fill="#161b22"/><rect x="422" y="97" width="10" height="10" rx="2" fill="#161b22"/><rect x="422" y="110" width="10" height="10" rx="2" fill="#161b22"/><rect x="422" y="123" width="10" height="10" rx="2" fill="#161b22"/><rect x="422" y="136" width="10" height="10" rx="2" fill="#161b22"/><rect x="435" y="58" width="10" height="10" rx="2" fill="#161b22"/><rect x="435" y="71" width="10" height="10" rx="2" fill="#161b22"/><rect x="435" y="84" width="10" height="10" rx="2" fill="#161b22"/><rect x="435" y="97" width="10" height="10" rx="2" fill="#161b22"/><rect x="435" y="110" width="10" height="10" rx="2" fill="#161b22"/><rect x="435" y="123" width="10" height="10" rx="2" fill="#161b22"/><rect x="435" y="136" width="10" height="10" rx="2" fill="#161b22"/><rect x="448" y="58" width="10" height="10" rx="2" fill="#161b22"/><rect x="448" y="71" width="10" height="10" rx="2" fill="#161b22"/><rect x="448" y="84" width="10" height="10" rx="2" fill="#161b22"/><rect x="448" y="97" width="10" height="10" rx="2" fill="#161b22"/><rect x="448" y="110" width="10" height="10" rx="2" fill="#161b22"/><rect x="448" y="123" width="10" height="10" rx="2" fill="#161b22"/><rect x="448" y="136" width="10" height="10" rx="2" fill="#161b22"/><rect x="461" y="58" width="10" height="10" rx="2" fill="#161b22"/><rect x="461" y="71" width="10" height="10" rx="2" fill="#161b22"/><rect x="461" y="84" width="10" height="10" rx="2" fill="#161b22"/><rect x="461" y="97" width="10" height="10" rx="2" fill="#161b22"/><rect x="461" y="110" width="10" height="10" rx="2" fill="#161b22"/><rect x="461" y="123" width="10" height="10" rx="2" fill="#161b22"/><rect x="461" y="136" width="10" height="10" rx="2" fill="#161b22"/><rect x="474" y="58" width="10" height="10" rx="2" fill="#161b22"/><rect x="474" y="71" width="10" height="10" rx="2" fill="#161b22"/><rect x="474" y="84" width="10" height="10" rx="2" fill="#161b22"/><rect x="474" y="97" width="10" height="10" rx="2" fill="#161b22"/><rect x="474" y="110" width="10" height="10" rx="2" fill="#161b22"/><rect x="474" y="123" width="10" height="10" rx="2" fill="#161b22"/><rect x="474" y="136" width="10" height="10" rx="2" fill="#161b22"/><rect x="487" y="58" width="10" height="10" rx="2" fill="#161b22"/><rect x="487" y="71" width="10" height="10" rx="2" fill="#161b22"/><rect x="487" y="84" width="10" height="10" rx="2" fill="#161b22"/><rect x="487" y="97" width="10" height="10" rx="2" fill="#161b22"/><rect x="487" y="110" width="10" height="10" rx="2" fill="#161b22"/><rect x="487" y="123" width="10" height="10" rx="2" fill="#161b22"/><rect x="487" y="136" width="10" height="10" rx="2" fill="#161b22"/><rect x="500" y="58" width="10" height="10" rx="2" fill="#161b22"/><rect x="500" y="71" width="10" height="10" rx="2" fill="#161b22"/><rect x="500" y="84" width="10" height="10" rx="2" fill="#161b22"/><rect x="500" y="97" width="10" height="10" rx="2" fill="#161b22"/><rect x="500" y="110" width="10" height="10" rx="2" fill="#161b22"/><rect x="500" y="123" width="10" height="10" rx="2" fill="#161b22"/><rect x="500" y="136" width="10" height="10" rx="2" fill="#161b22"/><rect x="513" y="58" width="10" height="10" rx="2" fill="#161b22"/><rect x="513" y="71" width="10" height="10" rx="2" fill="#161b22"/><rect x="513" y="84" width="10" height="10" rx="2" fill="#161b22"/><rect x="513" y="97" width="10" height="10" rx="2" fill="#161b22"/><rect x="513" y="110" width="10" height="10" rx="2" fill="#161b22"/><rect x="513" y="123" width="10" height="10" rx="2" fill="#161b22"/><rect x="513" y="136" width="10" height="10" rx="2" fill="#161b22"/><rect x="526" y="58" width="10" height="10" rx="2" fill="#161b22"/><rect x="526" y="71" width="10" height="10" rx="2" fill="#161b22"/><rect x="526" y="84" width="10" height="10" rx="2" fill="#161b22"/><rect x="526" y="97" width="10" height="10" rx="2" fill="#161b22"/><rect x="526" y="110" width="10" height="10" rx="2" fill="#161b22"/><rect x="526" y="123" width="10" height="10" rx="2" fill="#161b22"/><rect x="526" y="136" width="10" height="10" rx="2" fill="#161b22"/><rect x="539" y="58" width="10" height="10" rx="2" fill="#161b22"/><rect x="539" y="71" width="10" height="10" rx="2" fill="#161b22"/><rect x="539" y="84" width="10" height="10" rx="2" fill="#161b22"/><rect x="539" y="97" width="10" height="10" rx="2" fill="#161b22"/><rect x="539" y="110" width="10" height="10" rx="2" fill="#161b22"/><rect x="539" y="123" width="10" height="10" rx="2" fill="#161b22"/><rect x="539" y="136" width="10" height="10" rx="2" fill="#161b22"/><rect x="552" y="58" width="10" height="10" rx="2" fill="#161b22"/><rect x="552" y="71" width="10" height="10" rx="2" fill="#161b22"/><rect x="552" y="84" width="10" height="10" rx="2" fill="#161b22"/><rect x="552" y="97" width="10" height="10" rx="2" fill="#161b22"/><rect x="552" y="110" width="10" height="10" rx="2" fill="#161b22"/><rect x="552" y="123" width="10" height="10" rx="2" fill="#161b22"/><rect x="552" y="136" width="10" height="10" rx="2" fill="#161b22"/><rect x="565" y="58" width="10" height="10" rx="2" fill="#161b22"/><rect x="565" y="71" width="10" height="10" rx="2" fill="#161b22"/><rect x="565" y="84" width="10" height="10" rx="2" fill="#161b22"/><rect x="565" y="97" width="10" height="10" rx="2" fill="#161b22"/><rect x="565" y="110" width="10" height="10" rx="2" fill="#161b22"/><rect x="565" y="123" width="10" height="10" rx="2" fill="#161b22"/><rect x="565" y="136" width="10" height="10" rx="2" fill="#161b22"/><rect x="578" y="58" width="10" height="10" rx="2" fill="#161b22"/><rect x="578" y="71" width="10" height="10" rx="2" fill="#161b22"/><rect x="578" y="84" width="10" height="10" rx="2" fill="#161b22"/><rect x="578" y="97" width="10" height="10" rx="2" fill="#161b22"/><rect x="578" y="110" width="10" height="10" rx="2" fill="#161b22"/><rect x="578" y="123" width="10" height="10" rx="2" fill="#161b22"/><rect x="578" y="136" width="10" height="10" rx="2" fill="#161b22"/><rect x="591" y="58" width="10" height="10" rx="2" fill="#161b22"/><rect x="591" y="71" width="10" height="10" rx="2" fill="#161b22"/><rect x="591" y="84" width="10" height="10" rx="2" fill="#161b22"/><rect x="591" y="97" width="10" height="10" rx="2" fill="#161b22"/><rect x="591" y="110" width="10" height="10" rx="2" fill="#161b22"/><rect x="591" y="123" width="10" height="10" rx="2" fill="#161b22"/><rect x="591" y="136" width="10" height="10" rx="2" fill="#161b22"/><rect x="604" y="58" width="10" height="10" rx="2" fill="#161b22"/><rect x="604" y="71" width="10" height="10" rx="2" fill="#161b22"/><rect x="604" y="84" width="10" height="10" rx="2" fill="#161b22"/><rect x="604" y="97" width="10" height="10" rx="2" fill="#161b22"/><rect x="604" y="110" width="10" height="10" rx="2" fill="#161b22"/><rect x="604" y="123" width="10" height="10" rx="2" fill="#161b22"/><rect x="604" y="136" width="10" height="10" rx="2" fill="#161b22"/><rect x="617" y="58" width="10" height="10" rx="2" fill="#161b22"/><rect x="617" y="71" width="10" height="10" rx="2" fill="#161b22"/><rect x="617" y="84" width="10" height="10" rx="2" fill="#161b22"/><rect x="617" y="97" width="10" height="10" rx="2" fill="#161b22"/><rect x="617" y="110" width="10" height="10" rx="2" fill="#161b22"/><rect x="617" y="123" width="10" height="10" rx="2" fill="#161b22"/><rect x="617" y="136" width="10" height="10" rx="2" fill="#161b22"/><rect x="630" y="58" width="10" height="10" rx="2" fill="#161b22"/><rect x="630" y="71" width="10" height="10" rx="2" fill="#161b22"/><rect x="630" y="84" width="10" height="10" rx="2" fill="#161b22"/><rect x="630" y="97" width="10" height="10" rx="2" fill="#161b22"/><rect x="630" y="110" width="10" height="10" rx="2" fill="#161b22"/><rect x="630" y="123" width="10" height="10" rx="2" fill="#161b22"/><rect x="630" y="136" width="10" height="10" rx="2" fill="#161b22"/><rect x="643" y="58" width="10" height="10" rx="2" fill="#161b22"/><rect x="643" y="71" width="10" height="10" rx="2" fill="#161b22"/><rect x="643" y="84" width="10" height="10" rx="2" fill="#161b22"/><rect x="643" y="97" width="10" height="10" rx="2" fill="#161b22"/><rect x="643" y="110" width="10" height="10" rx="2" fill="#161b22"/><rect x="643" y="123" width="10" height="10" rx="2" fill="#161b22"/><rect x="643" y="136" width="10" height="10" rx="2" fill="#161b22"/><rect x="656" y="58" width="10" height="10" rx="2" fill="#161b22"/><rect x="656" y="71" width="10" height="10" rx="2" fill="#161b22"/><rect x="656" y="84" width="10" height="10" rx="2" fill="#161b22"/><rect x="656" y="97" width="10" height="10" rx="2" fill="#161b22"/><rect x="656" y="110" width="10" height="10" rx="2" fill="#161b22"/><rect x="656" y="123" width="10" height="10" rx="2" fill="#161b22"/><rect x="656" y="136" width="10" height="10" rx="2" fill="#161b22"/><rect x="669" y="58" width="10" height="10" rx="2" fill="#161b22"/><rect x="669" y="71" width="10" height="10" rx="2" fill="#161b22"/><rect x="669" y="84" width="10" height="10" rx="2" fill="#161b22"/><rect x="669" y="97" width="10" height="10" rx="2" fill="#161b22"/><rect x="669" y="110" width="10" height="10" rx="2" fill="#161b22"/><rect x="669" y="123" width="10" height="10" rx="2" fill="#161b22"/><rect x="669" y="136" width="10" height="10" rx="2" fill="#161b22"/><rect x="682" y="58" width="10" height="10" rx="2" fill="#161b22"/><rect x="682" y="71" width="10" height="10" rx="2" fill="#161b22"/><rect x="682" y="84" width="10" height="10" rx="2" fill="#161b22"/><rect x="682" y="97" width="10" height="10" rx="2" fill="#161b22"/><rect x="682" y="110" width="10" height="10" rx="2" fill="#161b22"/><rect x="682" y="123" width="10" height="10" rx="2" fill="#161b22"/><rect x="682" y="136" width="10" height="10" rx="2" fill="#161b22"/><rect x="695" y="58" width="10" height="10" rx="2" fill="#161b22"/><rect x="695" y="71" width="10" height="10" rx="2" fill="#161b22"/><rect x="695" y="84" width="10" height="10" rx="2" fill="#161b22"/><rect x="695" y="97" width="10" height="10" rx="2" fill="#161b22"/><rect x="695" y="110" width="10" height="10" rx="2" fill="#161b22"/><rect x="695" y="123" width="10" height="10" rx="2" fill="#161b22"/><rect x="695" y="136" width="10" height="10" rx="2" fill="#161b22"/><rect x="708" y="58" width="10" height="10" rx="2" fill="#161b22"/><rect x="708" y="71" width="10" height="10" rx="2" fill="#161b22"/><rect x="708" y="84" width="10" height="10" rx="2" fill="#161b22"/><rect x="708" y="97" width="10" height="10" rx="2" fill="#161b22"/><rect x="708" y="110" width="10" height="10" rx="2" fill="#161b22"/><rect x="708" y="123" width="10" height="10" rx="2" fill="#161b22"/><rect x="708" y="136" width="10" height="10" rx="2" fill="#484f58"/><rect x="721" y="58" width="10" height="10" rx="2" fill="#161b22"/><rect x="721" y="71" width="10" height="10" rx="2" fill="#161b22"/><rect x="721" y="84" width="10" height="10" rx="2" fill="#161b22"/><rect x="721" y="97" width="10" height="10" rx="2" fill="#161b22"/><rect x="721" y="110" width="10" height="10" rx="2" fill="#161b22"/><rect x="721" y="123" width="10" height="10" rx="2" fill="#161b22"/><rect x="721" y="136" width="10" height="10" rx="2" fill="#161b22"/><rect x="734" y="58" width="10" height="10" rx="2" fill="#161b22"/><rect x="734" y="71" width="10" height="10" rx="2" fill="#161b22"/><rect x="734" y="84" width="10" height="10" rx="2" fill="#161b22"/><rect x="734" y="97" width="10" height="10" rx="2" fill="#161b22"/><rect x="734" y="110" width="10" height="10" rx="2" fill="#161b22"/><rect x="734" y="123" width="10" height="10" rx="2" fill="#161b22"/><rect x="734" y="136" width="10" height="10" rx="2" fill="#161b22"/><rect x="747" y="58" width="10" height="10" rx="2" fill="#161b22"/><rect x="747" y="71" width="10" height="10" rx="2" fill="#161b22"/><rect x="747" y="84" width="10" height="10" rx="2" fill="#161b22"/><rect x="747" y="97" width="10" height="10" rx="2" fill="#161b22"/><rect x="747" y="110" width="10" height="10" rx="2" fill="#484f58"/><rect x="747" y="123" width="10" height="10" rx="2" fill="#9da7b1"/><rect x="747" y="136" width="10" height="10" rx="2" fill="#30363d"/><rect x="760" y="58" width="10" height="10" rx="2" fill="#161b22"/><rect x="760" y="71" width="10" height="10" rx="2" fill="#161b22"/><rect x="760" y="84" width="10" height="10" rx="2" fill="#161b22"/><rect x="760" y="97" width="10" height="10" rx="2" fill="#161b22"/><rect x="760" y="110" width="10" height="10" rx="2" fill="#30363d"/><rect x="760" y="123" width="10" height="10" rx="2" fill="#6e7681"/><rect x="760" y="136" width="10" height="10" rx="2" fill="#9da7b1"/><rect x="773" y="58" width="10" height="10" rx="2" fill="#6e7681"/><rect x="773" y="71" width="10" height="10" rx="2" fill="#161b22"/><rect x="773" y="84" width="10" height="10" rx="2" fill="#30363d"/><text x="89" y="79.5" text-anchor="end" font-family="-apple-system, BlinkMacSystemFont, 'Segoe UI', Helvetica, Arial, sans-serif" font-size="8" fill="#6e7681">MON</text><text x="89" y="105.5" text-anchor="end" font-family="-apple-system, BlinkMacSystemFont, 'Segoe UI', Helvetica, Arial, sans-serif" font-size="8" fill="#6e7681">WED</text><text x="89" y="131.5" text-anchor="end" font-family="-apple-system, BlinkMacSystemFont, 'Segoe UI', Helvetica, Arial, sans-serif" font-size="8" fill="#6e7681">FRI</text><text x="721" y="171.5" font-family="-apple-system, BlinkMacSystemFont, 'Segoe UI', Helvetica, Arial, sans-serif" font-size="8" fill="#6e7681">Less</text><rect x="755" y="163" width="10" height="10" rx="2" fill="#161b22"/><rect x="768" y="163" width="10" height="10" rx="2" fill="#30363d"/><rect x="781" y="163" width="10" height="10" rx="2" fill="#484f58"/><rect x="794" y="163" width="10" height="10" rx="2" fill="#6e7681"/><rect x="807" y="163" width="10" height="10" rx="2" fill="#9da7b1"/><rect x="820" y="163" width="10" height="10" rx="2" fill="#f0f6fc"/><text x="839" y="171.5" font-family="-apple-system, BlinkMacSystemFont, 'Segoe UI', Helvetica, Arial, sans-serif" font-size="8" fill="#6e7681">More</text></svg>